<?xml version="1.0" encoding="utf-8"?>
<!-- Generator: Adobe Illustrator 28.0.0, SVG Export Plug-In . SVG Version: 6.00 Build 0)  -->
<svg version="1.1" id="Calque_1" xmlns="http://www.w3.org/2000/svg" xmlns:xlink="http://www.w3.org/1999/xlink" x="0px" y="0px"
	 viewBox="0 0 16 16" style="enable-background:new 0 0 16 16;" xml:space="preserve">
<style type="text/css">
	.st0{clip-path:url(#SVGID_00000148645507020016775200000014852875460005720199_);fill:#2A3C56;}
	.st1{clip-path:url(#SVGID_00000148645507020016775200000014852875460005720199_);}
	.st2{clip-path:url(#SVGID_00000116215575004966677320000017666868736736840355_);fill:#2A3C56;}
	
		.st3{clip-path:url(#SVGID_00000142855589175100785790000013428100746982169990_);fill:url(#SVGID_00000033333187191651177780000003514994191505753739_);}
	
		.st4{clip-path:url(#SVGID_00000057123591991587600020000002772131548013214602_);fill:url(#SVGID_00000002351367923258682640000003272774241772427953_);}
	.st5{clip-path:url(#SVGID_00000178167425316978871110000014350084166847697544_);fill:#2A3C56;}
	.st6{clip-path:url(#SVGID_00000178167425316978871110000014350084166847697544_);fill:#FFFFFF;}
	.st7{fill:#2A3C56;}
	.st8{font-family:'MyriadPro-Semibold';}
	.st9{font-size:1.0566px;}
</style>
<g>
	<g>
		<defs>
			<rect id="SVGID_1_" x="-0.8" y="0.9" width="19.7" height="13.9"/>
		</defs>
		<clipPath id="SVGID_00000064348636391010515230000004355516718555898249_">
			<use xlink:href="#SVGID_1_"  style="overflow:visible;"/>
		</clipPath>
		
			<rect x="9.3" y="6" style="clip-path:url(#SVGID_00000064348636391010515230000004355516718555898249_);fill:#2A3C56;" width="0.3" height="1"/>
		<g style="clip-path:url(#SVGID_00000064348636391010515230000004355516718555898249_);">
			<defs>
				<rect id="SVGID_00000024687738831866955810000002423650476118040500_" x="-0.8" y="0.9" width="19.7" height="13.9"/>
			</defs>
			<clipPath id="SVGID_00000127046444391062364100000001126553445666838950_">
				<use xlink:href="#SVGID_00000024687738831866955810000002423650476118040500_"  style="overflow:visible;"/>
			</clipPath>
			<path style="clip-path:url(#SVGID_00000127046444391062364100000001126553445666838950_);fill:#2A3C56;" d="M9.3,7.3H8.1V6H7.8
				v1.3v0.2v1.4h0.3V7.5h1.3v1.4h0.3V7.5C9.5,7.2,9.3,7.3,9.3,7.3"/>
			<path style="clip-path:url(#SVGID_00000127046444391062364100000001126553445666838950_);fill:#2A3C56;" d="M4.8,7.5
				c-0.1,0.6-0.5,1-1.1,1c-0.6,0-1.1-0.4-1.1-1H2.3C2.4,8.2,3,8.8,3.7,8.8c0.7,0,1.3-0.6,1.4-1.3H4.8z"/>
			<path style="clip-path:url(#SVGID_00000127046444391062364100000001126553445666838950_);fill:#2A3C56;" d="M3.7,6.3
				c0.6,0,1.1,0.4,1.1,1h0.3C5.1,6.6,4.4,6,3.7,6S2.4,6.6,2.3,7.3h0.3C2.6,6.7,3.1,6.3,3.7,6.3"/>
			
				<rect x="5.4" y="6" style="clip-path:url(#SVGID_00000127046444391062364100000001126553445666838950_);fill:#2A3C56;" width="0.3" height="2.8"/>
			<path style="clip-path:url(#SVGID_00000127046444391062364100000001126553445666838950_);fill:#2A3C56;" d="M7.5,7.3
				c0,0,0-1.4-1.6-1.3v0.3c0,0,1.2-0.2,1.3,1.1c0,0,0.1,1.2-1.3,1.2l0,0.3C5.9,8.8,7.5,8.9,7.5,7.3"/>
		</g>
		<g style="clip-path:url(#SVGID_00000064348636391010515230000004355516718555898249_);">
			<defs>
				<polyline id="SVGID_00000109738967847947578720000004112192930836809907_" points="12,9.1 12,9.1 12,9.1 12,9.1 				"/>
			</defs>
			<clipPath id="SVGID_00000152974271593919508870000009655581159389199489_">
				<use xlink:href="#SVGID_00000109738967847947578720000004112192930836809907_"  style="overflow:visible;"/>
			</clipPath>
			
				<linearGradient id="SVGID_00000052821420989811922550000003179530155782767496_" gradientUnits="userSpaceOnUse" x1="-3469.2925" y1="-1527.0096" x2="-3469.269" y2="-1527.0096" gradientTransform="matrix(0.1543 0 0 -0.1543 547.3279 -226.554)">
				<stop  offset="0" style="stop-color:#EDDA2D"/>
				<stop  offset="0.1911" style="stop-color:#EDDA2D"/>
				<stop  offset="1" style="stop-color:#E29F11"/>
			</linearGradient>
			
				<rect x="12" y="9.1" style="clip-path:url(#SVGID_00000152974271593919508870000009655581159389199489_);fill:url(#SVGID_00000052821420989811922550000003179530155782767496_);" width="0" height="0"/>
		</g>
		<g style="clip-path:url(#SVGID_00000064348636391010515230000004355516718555898249_);">
			<defs>
				<path id="SVGID_00000049206169223501763540000014315181903245585082_" d="M10.9,7.6c0,0.4,0.2,1,0.9,1.1v0.3h0v0.2
					c-0.2,0.1-0.3,0.2-0.3,0.4c0,0.2,0.2,0.4,0.4,0.4s0.4-0.2,0.4-0.4c0-0.2-0.1-0.3-0.2-0.4V9.1V8.8c0.1,0,0.1,0,0.2-0.1
					C12.7,8.5,12.9,8,12.9,8c0,0,0-0.1,0.1-0.2c0,0,0,0,0,0c0,0,0-0.1,0-0.1C12.3,8.1,12,7.8,12,7.8c-0.3-0.2-0.6-0.3-0.8-0.3
					C11,7.6,10.9,7.6,10.9,7.6"/>
			</defs>
			<clipPath id="SVGID_00000066500751887585101770000001331438391351267486_">
				<use xlink:href="#SVGID_00000049206169223501763540000014315181903245585082_"  style="overflow:visible;"/>
			</clipPath>
			
				<linearGradient id="SVGID_00000035515192872753355120000000391046568725164186_" gradientUnits="userSpaceOnUse" x1="-5.3952" y1="13.2575" x2="-5.3719" y2="13.2575" gradientTransform="matrix(90.0967 0 0 -90.0967 496.9422 1203.3005)">
				<stop  offset="0" style="stop-color:#EDDA2D"/>
				<stop  offset="0.1911" style="stop-color:#EDDA2D"/>
				<stop  offset="1" style="stop-color:#E29F11"/>
			</linearGradient>
			
				<rect x="10.9" y="7.6" style="clip-path:url(#SVGID_00000066500751887585101770000001331438391351267486_);fill:url(#SVGID_00000035515192872753355120000000391046568725164186_);" width="2.1" height="2.6"/>
		</g>
		<g style="clip-path:url(#SVGID_00000064348636391010515230000004355516718555898249_);">
			<defs>
				<rect id="SVGID_00000162320784269999640420000000695432272571120779_" x="-0.8" y="0.9" width="19.7" height="13.9"/>
			</defs>
			<clipPath id="SVGID_00000157271204685401529450000005601470346357192320_">
				<use xlink:href="#SVGID_00000162320784269999640420000000695432272571120779_"  style="overflow:visible;"/>
			</clipPath>
			<path style="clip-path:url(#SVGID_00000157271204685401529450000005601470346357192320_);fill:#2A3C56;" d="M12.9,7
				c0,0,0.1,0.6-0.1,1c0,0-0.3,0.7-0.8,0.8v0.3c0,0,0.9-0.2,1-1.1C13,8,13.1,7.7,12.9,7"/>
			<path style="clip-path:url(#SVGID_00000157271204685401529450000005601470346357192320_);fill:#2A3C56;" d="M11.4,6
				c0.2-0.4,0.4-1.1,0.4-1.1l-0.3,0.6L11,6.4c-0.4,0.6-0.4,1.1-0.4,1.1c0,1.5,1.2,1.5,1.2,1.5V8.8c-1.2-0.3-0.9-1.7-0.9-1.7
				C10.9,6.9,11.4,6,11.4,6"/>
			<path style="clip-path:url(#SVGID_00000157271204685401529450000005601470346357192320_);fill:#FFFFFF;" d="M11.9,8.9l0-0.2
				L11.5,8c0,0,0-0.5-0.3-0.3c0,0-0.2,0.2,0.1,0.4l0.5,0.5L11.9,8.9z"/>
		</g>
		<g style="clip-path:url(#SVGID_00000064348636391010515230000004355516718555898249_);">
			<text transform="matrix(1 0 0 1 2.2026 10.0537)" class="st7 st8 st9">OIL DISTRIBUTION HOLDING</text>
		</g>
	</g>
</g>
</svg>
